<?xml version="1.0" standalone="no"?>
<!DOCTYPE svg PUBLIC "-//W3C//DTD SVG 20010904//EN"
 "http://www.w3.org/TR/2001/REC-SVG-20010904/DTD/svg10.dtd">
<svg version="1.0" xmlns="http://www.w3.org/2000/svg"
 width="260.000000pt" height="260.000000pt" viewBox="0 0 260.000000 260.000000"
 preserveAspectRatio="xMidYMid meet">
<metadata>
Created by potrace 1.14, written by Peter Selinger 2001-2017
</metadata>
<g transform="translate(0.000000,260.000000) scale(0.100000,-0.100000)"
fill="#000000" stroke="none">
<path d="M1248 2155 c-14 -60 -14 -65 1 -65 34 0 41 14 32 68 -4 29 -10 54
-13 57 -2 3 -11 -25 -20 -60z"/>
<path d="M970 2088 c0 -2 17 -28 39 -56 38 -52 39 -52 61 -34 l23 19 -39 23
c-21 13 -49 30 -61 38 -13 8 -23 12 -23 10z"/>
<path d="M1485 2060 c-27 -16 -54 -31 -60 -34 -12 -4 26 -37 39 -33 8 3 81 97
74 97 -1 0 -25 -14 -53 -30z"/>
<path d="M1164 2032 c-73 -35 -134 -130 -134 -209 0 -70 59 -157 131 -194 49
-24 131 -25 185 0 22 10 57 37 77 61 87 102 66 242 -51 324 -55 39 -146 47
-208 18z"/>
<path d="M933 1837 c-61 -17 -60 -23 3 -31 58 -7 73 0 74 32 0 14 -20 14 -77
-1z"/>
<path d="M1515 1840 c-2 -4 -2 -16 1 -28 5 -19 11 -20 58 -15 28 3 54 8 58 12
4 4 -20 14 -53 22 -33 9 -62 13 -64 9z"/>
<path d="M1038 1648 c-8 -13 -25 -41 -38 -63 l-24 -39 48 34 c56 40 65 56 44
76 -13 13 -17 13 -30 -8z"/>
<path d="M571 1533 c-1 -144 12 -253 43 -345 l22 -67 -75 -7 c-88 -8 -79 -14
59 -38 122 -21 141 -21 133 1 -6 14 1 15 58 9 163 -17 211 -19 218 -8 3 6 37
16 75 22 38 6 80 17 95 24 30 16 77 63 70 71 -3 2 -88 -6 -190 -19 -101 -13
-187 -22 -191 -19 -5 2 -13 14 -20 26 -9 19 -9 20 3 11 10 -8 43 -8 124 3 61
8 117 17 125 20 9 3 -19 22 -72 49 -47 24 -126 73 -175 109 l-88 66 103 -101
102 -100 -49 0 -49 0 -82 113 c-77 105 -110 146 -98 122 3 -5 32 -57 65 -115
74 -129 85 -150 79 -150 -2 0 -52 86 -112 190 -59 105 -108 190 -110 190 -3 0
38 -89 130 -284 31 -66 55 -120 54 -121 -2 -1 -37 -5 -79 -8 l-76 -7 -21 73
c-35 119 -42 156 -56 287 l-14 125 -1 -122z"/>
<path d="M1419 1627 c-15 -21 -14 -24 40 -67 l56 -45 -34 60 c-43 77 -43 77
-62 52z"/>
<path d="M1236 1558 c3 -18 12 -51 19 -73 l12 -40 7 64 c8 65 2 80 -32 81 -10
0 -12 -9 -6 -32z"/>
<path d="M1670 1290 c0 -5 -6 -10 -14 -10 -12 0 -29 -28 -31 -52 0 -3 -3 -10
-7 -14 -5 -4 -7 -26 -7 -48 1 -23 4 -32 6 -22 13 51 72 121 121 143 26 11 25
11 -20 12 -27 1 -48 -3 -48 -9z"/>
<path d="M1654 1159 l-29 -31 40 21 c22 12 49 21 60 21 17 0 17 2 5 10 -26 17
-45 11 -76 -21z"/>
<path d="M1485 1170 c-18 -8 -17 -9 8 -9 15 -1 46 -10 67 -21 47 -24 50 -21
15 15 -26 26 -54 30 -90 15z"/>
<path d="M1670 1128 c-22 -9 -40 -18 -40 -20 0 -2 28 -3 63 -4 64 0 112 -18
154 -56 l22 -20 -11 36 c-18 59 -53 87 -104 84 -24 -2 -62 -11 -84 -20z"/>
<path d="M1998 1124 c12 -8 31 -32 43 -52 l20 -37 -6 40 c-7 43 -27 65 -59 65
-20 0 -20 -1 2 -16z"/>
<path d="M1466 1096 c-20 -15 -36 -60 -35 -99 l1 -32 14 32 c17 39 70 81 112
89 17 4 29 10 26 15 -7 12 -101 9 -118 -5z"/>
<path d="M1598 1076 c-19 -14 -24 -36 -9 -36 6 0 13 5 16 10 13 21 24 8 43
-52 24 -75 33 -135 26 -164 -4 -13 -27 -31 -66 -50 -33 -16 -85 -52 -116 -80
l-57 -51 90 -14 c120 -19 500 -19 620 0 l89 14 -53 48 c-29 27 -84 64 -122 82
-80 37 -83 47 -45 139 34 83 15 62 -25 -26 -32 -70 -35 -75 -59 -68 -14 4 -66
7 -117 6 l-92 -1 -21 68 c-23 78 -52 146 -72 171 -11 14 -16 15 -30 4z"/>
<path d="M1990 1060 c-13 -8 -13 -10 2 -10 9 0 25 -3 35 -7 16 -6 16 -5 4 10
-16 20 -20 20 -41 7z"/>
<path d="M2088 1059 c-30 -17 -20 -28 12 -13 17 9 30 17 30 20 0 7 -25 4 -42
-7z"/>
<path d="M1942 1027 c-6 -7 -16 -26 -22 -42 l-11 -30 23 22 c19 17 88 45 100
40 2 -1 -3 4 -11 11 -19 16 -66 16 -79 -1z"/>
<path d="M2100 1002 c19 -9 40 -28 47 -42 l13 -25 0 31 c0 39 -16 54 -59 54
l-36 -1 35 -17z"/>
<path d="M2050 986 c0 -9 5 -16 10 -16 6 0 10 4 10 9 0 6 -4 13 -10 16 -5 3
-10 -1 -10 -9z"/>
<path d="M519 967 c-9 -7 -21 -22 -27 -34 -12 -21 -11 -21 18 -6 35 17 55 12
130 -32 63 -38 106 -49 140 -37 23 9 23 9 -6 15 -16 3 -51 25 -79 48 -27 23
-60 45 -73 50 -33 13 -84 11 -103 -4z"/>
<path d="M305 852 c-72 -35 -106 -88 -104 -165 0 -38 1 -40 10 -17 23 57 85
100 143 100 57 0 114 -29 221 -111 119 -90 150 -107 209 -115 45 -7 107 8 124
29 8 9 -5 12 -51 13 -84 1 -115 19 -227 133 -57 58 -114 106 -141 119 -67 32
-134 37 -184 14z"/>
</g>
</svg>
